HIERARCHY
ROOT ui
{
	 OFFSET 0 0 0
	 CHANNELS 3 XPosition YPosition Z Position
	 EndSite
	 {
	 OFFSET 0 -1 0
	 }
}
ROOT li
{
	 OFFSET 0 0 0
	 CHANNELS 3 XPosition YPosition Z Position
	 EndSite
	 {
	 OFFSET 0 -1 0
	 }
}
ROOT ul
{
	 OFFSET 0 0 0
	 CHANNELS 3 XPosition YPosition Z Position
	 EndSite
	 {
	 OFFSET 0 -1 0
	 }
}
ROOT ll
{
	 OFFSET 0 0 0
	 CHANNELS 3 XPosition YPosition Z Position
	 EndSite
	 {
	 OFFSET 0 -1 0
	 }
}
ROOT tt
{
	 OFFSET 0 0 0
	 CHANNELS 3 XPosition YPosition Z Position
	 EndSite
	 {
	 OFFSET 0 -1 0
	 }
}
ROOT tb
{
	 OFFSET 0 0 0
	 CHANNELS 3 XPosition YPosition Z Position
	 EndSite
	 {
	 OFFSET 0 -1 0
	 }
}
ROOT td
{
	 OFFSET 0 0 0
	 CHANNELS 3 XPosition YPosition Z Position
	 EndSite
	 {
	 OFFSET 0 -1 0
	 }
}
ROOT v
{
	 OFFSET 0 0 0
	 CHANNELS 3 XPosition YPosition Z Position
	 EndSite
	 {
	 OFFSET 0 -1 0
	 }
}
ROOT bn
{
	 OFFSET 0 0 0
	 CHANNELS 3 XPosition YPosition Z Position
	 EndSite
	 {
	 OFFSET 0 -1 0
	 }
}
MOTION
Frames: 32
Frame Time: 0.002
-0.005043313026428222	0.0011573469638824464	0		0.44086273193359377	-2.424907958984375	0		-1.0660963134765624	-0.007988698959350586	0		-0.8108131103515624	-2.35118115234375	0		1.45985986328125	-0.4605490417480469	0		3.06982568359375	0.18409251403808594	0		4.2985009765625	0.17938809204101563	0		5.81034619140625	0.29155645751953124	0		-0.23107252502441405	5.8972529296875	0		
-0.06543798828125	0.009856991767883301	0		0.4365004272460937	-2.417456787109375	0		-1.065546142578125	-0.011583464622497559	0		-0.7422137451171875	-2.35208203125	0		1.5024119873046875	-0.4652962036132812	0		3.04947802734375	0.20365725708007812	0		4.30715087890625	0.1988365478515625	0		5.82397802734375	0.30700863647460935	0		-0.2076231384277344	5.89156640625	0		
-0.010020966529846192	0.005049726009368896	0		0.46694552612304685	-2.4231435546875	0		-1.061110107421875	-0.01217225456237793	0		-0.8087776489257813	-2.359343505859375	0		1.482840576171875	-0.46874163818359377	0		3.05479736328125	0.17811900329589844	0		4.31652294921875	0.1852940673828125	0		5.83337353515625	0.2984889831542969	0		-0.20426123046875	5.89199365234375	0		
-0.05976329803466797	0.004748802185058593	0		0.44122991943359374	-2.423548095703125	0		-1.056852783203125	-0.01272973918914795	0		-0.7295267333984375	-2.36723828125	0		1.5020665283203125	-0.47733880615234375	0		3.072084228515625	0.18454823303222656	0		4.33774462890625	0.17771710205078126	0		5.83762744140625	0.2980081176757812	0		-0.21511471557617187	5.881513671875	0		
-0.0017274340391159057	0.003992552042007446	0		0.44730117797851565	-2.421064697265625	0		-1.0528162841796875	-0.013250325202941894	0		-0.8004370727539063	-2.360416748046875	0		1.474062255859375	-0.4876920166015625	0		3.081032958984375	0.16504141235351563	0		4.3247509765625	0.171319091796875	0		5.8236611328125	0.29762945556640624	0		-0.26513381958007814	5.8802451171875	0		
-0.04892699432373047	0.007750254154205322	0		0.45310751342773437	-2.41954345703125	0		-1.0490343017578125	-0.013729792594909668	0		-0.753631591796875	-2.3590888671875	0		1.5228558349609376	-0.4863587646484375	0		3.077908935546875	0.1856197509765625	0		4.3375263671875	0.16983197021484375	0		5.83644091796875	0.29715316772460937	0		-0.1923404541015625	5.89045849609375	0		
-0.04542578125	0.007318708896636963	0		0.4566187438964844	-2.41997314453125	0		-1.045532958984375	-0.014165461540222168	0		-0.7931292114257813	-2.3613291015625	0		1.5023458251953126	-0.4896754150390625	0		3.084287353515625	0.15818783569335937	0		4.34096728515625	0.1564178466796875	0		5.83994091796875	0.29674591064453126	0		-0.2228857421875	5.88518017578125	0		
-0.045240039825439456	0.0029435439109802247	0		0.4488548889160156	-2.41431103515625	0		-0.96533447265625	-0.015903861999511718	0		-0.7149527587890625	-2.369057861328125	0		1.5645274658203125	-0.4953271179199219	0		3.129549072265625	0.17061604309082032	0		4.35817041015625	0.15597482299804688	0		5.85214404296875	0.2963290710449219	0		-0.1846767883300781	5.8886328125	0		
-0.04233968734741211	0.0025973939895629883	0		0.4587065124511719	-2.4256884765625	0		-1.0394288330078125	-0.014902905464172363	0		-0.7910370483398438	-2.3660478515625	0		1.5234149169921876	-0.4984739990234375	0		3.111368408203125	0.15236618041992187	0		4.3560390625	0.14865304565429688	0		5.85504443359375	0.29598538208007813	0		-0.19781935119628907	5.87935888671875	0		
-0.03973759078979492	0.0022925970554351807	0		0.4633196411132813	-2.4230029296875	0		-1.0368267822265624	-0.015206680297851563	0		-0.7504512939453125	-2.3695234375	0		1.535966796875	-0.5098254089355468	0		3.10497509765625	0.15309877014160156	0		4.36360986328125	0.14132147216796875	0		5.85764697265625	0.295674560546875	0		-0.213197509765625	5.8821357421875	0		
0.030557687759399415	-0.003279778003692627	0		0.4506285400390625	-2.42420166015625	0		-1.0245128173828124	-0.016514968872070313	0		-0.7671196899414062	-2.365701416015625	0		1.5443201904296875	-0.5021213684082031	0		3.12220361328125	0.13275901794433595	0		4.3619248046875	0.14006500244140624	0		5.85096142578125	0.29443695068359377	0		-0.19482559204101563	5.89079833984375	0		
0.02264847183227539	0.004537112236022949	0		0.49767974853515623	-2.423634521484375	0		-0.9514409790039062	-0.013060893058776855	0		-0.7430816040039062	-2.368026611328125	0		1.581332275390625	-0.5115122680664063	0		3.121380615234375	0.15953468322753905	0		4.38595263671875	0.133724853515625	0		5.862021484375	0.29515036010742185	0		-0.1587218475341797	5.8974169921875	0		
-0.030537019729614256	0.005592534065246582	0		0.469480712890625	-2.42369384765625	0		-1.0306444091796876	-0.01588432025909424	0		-0.7822758178710938	-2.36703173828125	0		1.577108154296875	-0.5186840209960938	0		3.1120458984375	0.12738025665283204	0		4.37476318359375	0.1335753173828125	0		5.8497958984375	0.2869993896484375	0		-0.17293623352050783	5.887296875	0		
0.02202567481994629	0.0012004430294036866	0		0.4710522155761719	-2.423857177734375	0		-0.9520684814453125	-0.01739009094238281	0		-0.7467361450195312	-2.37434375	0		1.585619384765625	-0.53388330078125	0		3.143600341796875	0.12107051849365234	0		4.398318359375	0.1272974853515625	0		5.85137841796875	0.2868143005371094	0		-0.18638072204589845	5.8762041015625	0		
-0.02163995361328125	-0.0067289299964904785	0		0.4533843994140625	-2.42990625	0		-1.027693115234375	-0.016170133590698244	0		-0.7743991088867187	-2.37934228515625	0		1.5919599609375	-0.54004638671875	0		3.144970947265625	0.1209229965209961	0		4.377658203125	0.12024493408203125	0		5.84375	0.2866952819824219	0		-0.1849839324951172	5.87607177734375	0		
0.028585773468017578	0.00393969202041626	0		0.47558444213867185	-2.422113037109375	0		-1.0225032348632812	-0.013292159080505371	0		-0.7781803588867188	-2.3674248046875	0		1.5551566162109376	-0.5349912109375	0		3.14018896484375	0.12982501220703124	0		4.4138310546875	0.118955810546875	0		5.84988671875	0.2775338439941406	0		-0.2377816162109375	5.87520849609375	0		
-0.028427520751953126	0.0011143900156021119	0		0.44857992553710935	-2.4200771484375	0		-1.0255172119140625	-0.01635683822631836	0		-0.74322607421875	-2.374663330078125	0		1.599107421875	-0.5452838134765625	0		3.144066650390625	0.10270542907714844	0		4.41483251953125	0.11884353637695312	0		5.85088818359375	0.2774123840332031	0		-0.20172203063964844	5.88096240234375	0		
0.04038871383666992	-0.004266499042510986	0		0.5033730773925781	-2.427397216796875	0		-0.9476829223632812	-0.01777288055419922	0		-0.7444093627929688	-2.3767216796875	0		1.585916748046875	-0.5513012084960938	0		3.190938232421875	0.10940595245361329	0		4.41258251953125	0.09876094055175781	0		5.84769287109375	0.26932467651367187	0		-0.1668210906982422	5.88673681640625	0		
-0.054891754150390625	0.0011116180419921875	0		0.46710577392578123	-2.41629052734375	0		-1.0239818725585939	-0.016475711822509766	0		-0.7107590942382812	-2.383926513671875	0		1.5885684814453125	-0.5603778686523437	0		3.13560791015625	0.10358441162109375	0		4.41327978515625	0.09867861938476563	0		5.839390625	0.269274169921875	0		-0.1821331787109375	5.877751953125	0		
0.03763473510742187	-0.008356416702270508	0		0.48558932495117185	-2.432423583984375	0		-1.0234135131835937	-0.01651973533630371	0		-0.7662517700195313	-2.394716796875	0		1.599083984375	-0.5714801025390625	0		3.183149169921875	0.09730591583251953	0		4.413849609375	0.09860905456542969	0		5.84895556640625	0.2681556701660156	0		-0.1654951934814453	5.886630859375	0		
-0.012887914657592774	-0.004165828227996826	0		0.49207061767578125	-2.425494873046875	0		-1.0069824829101564	-0.022630701065063475	0		-0.6848031005859375	-2.395125244140625	0		1.60853125	-0.573569091796875	0		3.16451708984375	0.0773388671875	0		4.42324072265625	0.08351031494140625	0		5.85337890625	0.260073486328125	0		-0.14797344970703125	5.89551171875	0		
0.03251389694213867	0.0035922839641571043	0		0.4794442443847656	-2.42247314453125	0		-1.0185755615234375	-0.013609959602355956	0		-0.7733966674804688	-2.38475390625	0		1.6058773193359375	-0.5775957641601562	0		3.2179736328125	0.09705250549316406	0		4.440638671875	0.09038581848144531	0		5.84977685546875	0.2670408020019531	0		-0.18361558532714845	5.89064013671875	0		
-0.022192955017089844	0.004811377048492432	0		0.4777204895019531	-2.424496337890625	0		-0.945306640625	-0.017974094390869142	0		-0.7031621704101563	-2.3961044921875	0		1.5961146240234374	-0.5885836791992187	0		3.147180419921875	0.07934138488769531	0		4.43286767578125	0.07738587951660156	0		5.8319970703125	0.2520848083496094	0		-0.18038056945800782	5.8775947265625	0		
0.038970287322998044	-0.008495683670043946	0		0.47794436645507815	-2.42452490234375	0		-1.0220780029296874	-0.0166514949798584	0		-0.77196044921875	-2.400818359375	0		1.599296875	-0.5976255493164062	0		3.21037548828125	0.07302594757080078	0		4.44602685546875	0.06329908752441406	0		5.83222021484375	0.2520576477050781	0		-0.1651133728027344	5.88749755859375	0		
-0.024818300247192383	7.697349786758423E-4	0		0.47811773681640624	-2.424551025390625	0		-1.0219083251953125	-0.016679710388183593	0		-0.7328012084960938	-2.404024169921875	0		1.6094171142578124	-0.6086953125	0		3.211490234375	0.06099979019165039	0		4.4331962890625	0.06333828735351563	0		5.82331640625	0.23608119201660155	0		-0.17900736999511718	5.87553466796875	0		
0.03332030487060547	0.0034795739650726317	0		0.4612316284179688	-2.42849755859375	0		-1.0177691040039063	-0.01372620964050293	0		-0.7686461181640625	-2.398887451171875	0		1.6095443115234376	-0.6087164916992187	0		3.201675048828125	0.07402830505371094	0		4.4512890625	0.05624201965332031	0		5.82746875	0.24205287170410156	0		-0.16384745788574218	5.88643994140625	0		
-0.0116265230178833	-0.004340158939361572	0		0.4803565673828125	-2.422607666015625	0		-1.0176798706054688	-0.013754849433898925	0		-0.7325715942382812	-2.4040791015625	0		1.606617431640625	-0.61272216796875	0		3.216672607421875	0.05394644546508789	0		4.45137744140625	0.05623202514648438	0		5.81856201171875	0.2430894775390625	0		-0.16477455139160158	5.8874189453125	0		
0.02945452880859375	4.478200078010559E-4	0		0.4694524841308594	-2.416580810546875	0		-1.021634765625	-0.016765937805175782	0		-0.7454757080078125	-2.398048095703125	0		1.631591796875	-0.6318544921875	0		3.2407353515625	0.05482494354248047	0		4.44337646484375	0.04326057434082031	0		5.810546875	0.2271243896484375	0		-0.16374424743652344	5.886388671875	0		
-0.024512922286987305	6.6771799325943E-4	0		0.5044347839355469	-2.429763916015625	0		-0.9446080322265625	-0.018146305084228515	0		-0.701502685546875	-2.413277099609375	0		1.628608154296875	-0.635860107421875	0		3.208712890625	0.0429578971862793	0		4.46037548828125	0.03617460632324219	0		5.80057763671875	0.22716755676269532	0		-0.21380384826660156	5.87158984375	0		
-0.015541085243225098	-0.007400057792663574	0		0.449484130859375	-2.4225390625	0		-1.0156171264648437	-0.02185370445251465	0		-0.7774622802734374	-2.4079609375	0		1.6256051025390625	-0.6388674926757812	0		3.194698486328125	0.03800616073608398	0		4.4523515625	0.029199371337890623	0		5.78258544921875	0.22724317932128907	0		-0.1987666015625	5.88249365234375	0		
0.033497116088867185	0.0033494811058044434	0		0.49145172119140623	-2.42875634765625	0		-1.0016148681640624	-0.018947786331176757	0		-0.771435302734375	-2.40101806640625	0		1.621577392578125	-0.6428724975585938	0		3.214623291015625	0.02389645767211914	0		4.4573076171875	0.022160614013671875	0		5.79249609375	0.2101859893798828	0		-0.21678916931152345	5.88354736328125	0		
-0.011564921379089356	-0.004473865032196045	0		0.4804573059082031	-2.4227333984375	0		-0.940618896484375	-0.014254538536071778	0		-0.698498779296875	-2.41037890625	0		1.6565157470703125	-0.6510563354492187	0		3.237656005859375	0.036769775390625	0		4.48328076171875	0.02202232360839844	0		5.7924697265625	0.21016851806640624	0		-0.1628173828125	5.88527392578125	0		
